<svg width="8" height="8" viewBox="0 0 8 8" fill="none" xmlns="http://www.w3.org/2000/svg">
<path id="*" d="M2.17453 7.9203L1.13075 7.09838C1.02005 7.01536 0.956792 6.89913 0.940977 6.74969C0.925162 6.58365 0.948884 6.45081 1.01214 6.35118C1.01214 6.33458 1.05959 6.27646 1.15448 6.17684L2.86247 4.533L0.537701 4.25903C0.474442 4.24242 0.426998 4.23412 0.395369 4.23412C0.379554 4.21752 0.363739 4.20921 0.347924 4.20921C0.237221 4.17601 0.142333 4.09298 0.063259 3.96015C0 3.81071 -0.0158147 3.66127 0.0158147 3.51183L0.442813 2.21669C0.474442 2.08385 0.561423 1.98423 0.703756 1.91781C0.846089 1.85139 0.972607 1.83479 1.08331 1.86799C1.09912 1.86799 1.16238 1.8929 1.27309 1.94272L3.31319 3.16314L2.83875 0.747197C2.82293 0.68078 2.81502 0.639269 2.81502 0.622664C2.81502 0.589456 2.81502 0.56455 2.81502 0.547946C2.81502 0.41511 2.86247 0.290577 2.95736 0.174345C3.06806 0.0581151 3.19458 0 3.33691 0H4.64163C4.78396 0 4.90257 0.0581151 4.99746 0.174345C5.10816 0.290577 5.16351 0.41511 5.16351 0.547946C5.16351 0.56455 5.16351 0.589456 5.16351 0.622664C5.16351 0.639269 5.15561 0.68078 5.13979 0.747197L4.66535 3.16314L6.72917 1.94272C6.83988 1.8929 6.90314 1.86799 6.91895 1.86799C7.04547 1.83479 7.17199 1.85139 7.2985 1.91781C7.44084 1.98423 7.52782 2.08385 7.55945 2.21669L7.98645 3.51183C8.01807 3.66127 7.99435 3.81071 7.91528 3.96015C7.85202 4.09298 7.75713 4.17601 7.63061 4.20921C7.6148 4.20921 7.59108 4.21752 7.55945 4.23412C7.54363 4.23412 7.512 4.24242 7.46456 4.25903L5.11607 4.533L6.84778 6.17684C6.94267 6.27646 6.99012 6.33458 6.99012 6.35118C7.06919 6.45081 7.10082 6.58365 7.085 6.74969C7.06919 6.89913 6.99802 7.01536 6.87151 7.09838L5.82773 7.9203C5.70121 7.98672 5.56679 8.01162 5.42446 7.99502C5.28212 7.97841 5.17142 7.912 5.09235 7.79577C5.09235 7.77916 5.08444 7.76256 5.06862 7.74595C5.05281 7.72935 5.02909 7.68784 4.99746 7.62142L4.00113 5.35492L3.0048 7.62142C2.98899 7.68784 2.96526 7.72935 2.93363 7.74595C2.91782 7.76256 2.90991 7.77916 2.90991 7.79577C2.84665 7.912 2.73595 7.97841 2.5778 7.99502C2.43547 8.01162 2.30105 7.98672 2.17453 7.9203Z" fill="#FF60C3"/>
</svg>
