<svg width="32" height="32" viewBox="0 0 32 32" fill="none" xmlns="http://www.w3.org/2000/svg">
<g id="1564515_call_device_mobile_phone_smartphone_icon 1">
<g id="icons">
<path id="mobile" d="M26.6667 5.33333C26.6667 2.4 24.2667 0 21.3334 0H10.6667C7.73337 0 5.33337 2.4 5.33337 5.33333V26.6667C5.33337 29.6 7.73337 32 10.6667 32H21.3334C24.2667 32 26.6667 29.6 26.6667 26.6667V5.33333ZM17.3334 29.3333H14.6667C13.8667 29.3333 13.3334 28.8 13.3334 28C13.3334 27.2 13.8667 26.6667 14.6667 26.6667H17.3334C18.1334 26.6667 18.6667 27.2 18.6667 28C18.6667 28.8 18.1334 29.3333 17.3334 29.3333ZM24 22.6667C24 23.4667 23.4667 24 22.6667 24H9.33337C8.53337 24 8.00004 23.4667 8.00004 22.6667V6.66667C8.00004 5.86667 8.53337 5.33333 9.33337 5.33333H22.6667C23.4667 5.33333 24 5.86667 24 6.66667V22.6667Z" fill="#B7CEFF"/>
</g>
</g>
</svg>
