<svg width="35" height="41" viewBox="0 0 35 41" fill="none" xmlns="http://www.w3.org/2000/svg">
<path id="Subtract" fill-rule="evenodd" clip-rule="evenodd" d="M4.06165 10.4974C4.78814 10.4707 6.18905 10.4192 9.26477 17.5959C10.3488 15.6249 12.9111 10.3032 11.9256 3.01062C11.892 2.7922 11.8527 2.58525 11.8154 2.38926C11.6342 1.43565 11.5023 0.741732 12.3198 0.251244C13.2813 -0.325688 14.5244 0.692318 15.5911 1.56598C15.6177 1.58773 15.6441 1.60939 15.6705 1.63093C15.7273 1.67744 15.7958 1.73261 15.875 1.79643C17.3066 2.94972 22.2415 6.92524 25.2297 13.5554C25.9196 12.5699 26.5109 11.0917 26.5109 10.5004C26.5109 10.35 26.4726 10.053 26.4253 9.68568C26.2866 8.60845 26.0699 6.92581 26.5109 6.55837C27.1022 6.06562 28.0876 5.76997 28.6789 6.36127C28.6979 6.38027 28.7212 6.40315 28.7485 6.42996C29.5704 7.2375 34.0323 11.6213 34.9861 21.6364C35.0846 24.5928 34.789 31.6884 29.763 36.3202C29.5897 36.4462 29.4187 36.5713 29.2492 36.6954C26.2366 38.9003 23.6954 40.7601 17.4443 40.8534C10.8416 40.952 2.95763 38.1926 0.888103 31.2942C-0.195936 28.2392 -0.590133 24.2972 1.4794 19.3697C1.97214 17.5959 2.46489 15.7234 2.76054 13.5554C2.77151 13.3688 2.78004 13.1909 2.78817 13.0213C2.85302 11.6679 2.89219 10.8507 3.94312 10.5004C3.98054 10.5004 4.01999 10.4989 4.06165 10.4974ZM12.6155 24.2972C13.2067 24.8885 13.3053 25.1842 13.4038 25.5784C13.5024 25.9725 14.685 30.3087 16.4589 30.1116C17.2473 30.0131 19.711 28.5348 19.9081 22.819C19.9081 21.6364 20.2037 20.7494 20.795 20.6509C21.3863 20.5523 22.0762 20.5523 22.5689 21.2422C23.0617 21.932 24.8355 24.5929 24.737 27.9436C24.737 28.7319 24.6384 34.4478 21.1892 36.7144C20.6965 37.1086 19.4153 38.0941 17.6415 38.0941C15.8676 38.0941 11.4329 36.813 10.3488 30.7029C10.1517 29.6189 10.0532 25.9726 10.6445 24.9871C10.8416 24.5929 11.4329 23.903 12.6155 24.2972Z" fill="#FF60C3"/>
</svg>
